<svg width="33" height="33" viewBox="0 0 33 33" fill="none" xmlns="http://www.w3.org/2000/svg">
<path d="M32.6971 13.4967H16.8358V19.8817H25.8969C25.5062 21.9455 24.3209 23.6912 22.5341 24.8607C21.0239 25.8496 19.0967 26.4344 16.8314 26.4344C12.4458 26.4344 8.7362 23.5321 7.4104 19.6323C7.07676 18.6434 6.8836 17.5857 6.8836 16.4979C6.8836 15.41 7.07676 14.3523 7.4104 13.3634C8.74059 9.46788 12.4502 6.5656 16.8358 6.5656C19.3074 6.5656 21.5244 7.39974 23.2716 9.03362L28.1007 4.29967C25.1813 1.63388 21.3751 0 16.8358 0C10.2552 0 4.56126 3.69772 1.79114 9.08951C0.649727 11.3167 0 13.8364 0 16.5021C0 19.1679 0.649727 21.6833 1.79114 23.9105C4.56126 29.3023 10.2552 33 16.8358 33C21.3839 33 25.1945 31.5209 27.9778 29.0013C31.1606 26.1291 33 21.8982 33 16.8719C33 15.7024 32.8946 14.5802 32.6971 13.4967Z" fill="white"/>
</svg>
