<svg width="18" height="19" viewBox="0 0 18 19" fill="none" xmlns="http://www.w3.org/2000/svg">
<path fill-rule="evenodd" clip-rule="evenodd" d="M8.03 0.355841C8.30099 0.126099 8.64473 0 9 0C9.35527 0 9.69901 0.126099 9.97 0.355841L17.47 6.71884C17.6361 6.85964 17.7695 7.0349 17.861 7.23245C17.9526 7.43001 18 7.64512 18 7.86284V17.2658C18 17.6637 17.842 18.0452 17.5607 18.3265C17.2794 18.6078 16.8978 18.7658 16.5 18.7658H10.75C10.5511 18.7658 10.3603 18.6868 10.2197 18.5462C10.079 18.4055 10 18.2148 10 18.0158V11.7658H8V18.0158C8 18.2148 7.92098 18.4055 7.78033 18.5462C7.63968 18.6868 7.44891 18.7658 7.25 18.7658H1.5C1.10218 18.7658 0.720644 18.6078 0.43934 18.3265C0.158035 18.0452 0 17.6637 0 17.2658V7.86284C0 7.42284 0.194 7.00384 0.53 6.71884L8.03 0.355841ZM9 1.49984L1.5 7.86284V17.2658H6.5V11.0158C6.5 10.8169 6.57902 10.6262 6.71967 10.4855C6.86032 10.3449 7.05109 10.2658 7.25 10.2658H10.75C10.9489 10.2658 11.1397 10.3449 11.2803 10.4855C11.421 10.6262 11.5 10.8169 11.5 11.0158V17.2658H16.5V7.86284L9 1.49984Z" fill="white"/>
</svg>
