<svg width="1478" height="982" viewBox="0 0 1478 982" fill="none" xmlns="http://www.w3.org/2000/svg">
<mask id="mask0_129_1722" style="mask-type:alpha" maskUnits="userSpaceOnUse" x="0" y="-695" width="2092" height="2126">
<path d="M27.346 84.6281L27.4663 31.2094L39.6128 24.1966L85.5776 51.008L85.7879 63.7476L38.9882 90.7674L27.346 84.6281Z" stroke="#282828" stroke-width="4"/>
<path d="M28.5933 31.5114L62.3524 52.0325L50.2059 59.0453M50.2059 59.0453L40.7625 52.5891L38.8371 91.331M50.2059 59.0453L51.0754 70.4516L85.3713 50.6509" stroke="#282828" stroke-width="4"/>
<path d="M156.788 128.829L156.909 75.41L169.055 68.3972L215.02 95.2086L215.23 107.948L168.431 134.968L156.788 128.829Z" stroke="#282828" stroke-width="4"/>
<path d="M158.036 75.7121L191.795 96.2331L179.648 103.246M179.648 103.246L170.205 96.7898L168.28 135.532M179.648 103.246L180.518 114.652L214.814 94.8515" stroke="#282828" stroke-width="4"/>
<path d="M169.374 2.62806L169.495 -50.7906L181.641 -57.8034L227.606 -30.992L227.816 -18.2524L181.017 8.76743L169.374 2.62806Z" stroke="#282828" stroke-width="4"/>
<path d="M170.622 -50.4886L204.381 -29.9675L192.234 -22.9548M192.234 -22.9548L182.791 -29.4109L180.865 9.33097M192.234 -22.9548L193.104 -11.5484L227.4 -31.3492" stroke="#282828" stroke-width="4"/>
<path d="M298.817 46.8287L298.937 -6.58999L311.083 -13.6028L357.048 13.2086L357.259 25.9482L310.459 52.9681L298.817 46.8287Z" stroke="#282828" stroke-width="4"/>
<path d="M300.064 -6.28796L333.823 14.2331L321.677 21.2459M321.677 21.2459L312.233 14.7897L310.308 53.5316M321.677 21.2459L322.546 32.6522L356.842 12.8514" stroke="#282828" stroke-width="4"/>
<path d="M130.346 263.029L130.466 209.611L142.613 202.598L188.578 229.409L188.788 242.149L141.988 269.169L130.346 263.029Z" stroke="#282828" stroke-width="4"/>
<path d="M131.593 209.913L165.352 230.434L153.206 237.447M153.206 237.447L143.762 230.99L141.837 269.732M153.206 237.447L154.075 248.853L188.371 229.052" stroke="#282828" stroke-width="4"/>
<path d="M259.788 307.23L259.909 253.811L272.055 246.798L318.02 273.61L318.23 286.349L271.431 313.369L259.788 307.23Z" stroke="#282828" stroke-width="4"/>
<path d="M261.036 254.113L294.795 274.634L282.648 281.647M282.648 281.647L273.205 275.191L271.28 313.933M282.648 281.647L283.518 293.053L317.814 273.253" stroke="#282828" stroke-width="4"/>
<path d="M272.374 181.029L272.495 127.611L284.641 120.598L330.606 147.409L330.816 160.149L284.017 187.169L272.374 181.029Z" stroke="#282828" stroke-width="4"/>
<path d="M273.622 127.913L307.381 148.434L295.234 155.447M295.234 155.447L285.791 148.99L283.865 187.732M295.234 155.447L296.104 166.853L330.4 147.052" stroke="#282828" stroke-width="4"/>
<path d="M401.817 225.23L401.937 171.811L414.083 164.798L460.048 191.61L460.259 204.349L413.459 231.369L401.817 225.23Z" stroke="#282828" stroke-width="4"/>
<path d="M403.064 172.113L436.823 192.634L424.677 199.647M424.677 199.647L415.233 193.191L413.308 231.933M424.677 199.647L425.546 211.053L459.842 191.253" stroke="#282828" stroke-width="4"/>
<path d="M414.402 99.0293L414.522 45.6106L426.669 38.5979L472.634 65.4093L472.844 78.1489L426.044 105.169L414.402 99.0293Z" stroke="#282828" stroke-width="4"/>
<path d="M415.649 45.9127L449.409 66.4337L437.262 73.4465M437.262 73.4465L427.819 66.9904L425.893 105.732M437.262 73.4465L438.132 84.8529L472.427 65.0521" stroke="#282828" stroke-width="4"/>
<path d="M543.845 143.23L543.965 89.8113L556.111 82.7985L602.076 109.61L602.286 122.349L555.487 149.369L543.845 143.23Z" stroke="#282828" stroke-width="4"/>
<path d="M545.092 90.1133L578.851 110.634L566.704 117.647M566.704 117.647L557.261 111.191L555.336 149.933M566.704 117.647L567.574 129.053L601.87 109.253" stroke="#282828" stroke-width="4"/>
<path d="M556.43 17.0293L556.551 -36.3894L568.697 -43.4021L614.662 -16.5907L614.872 -3.85113L568.073 23.1687L556.43 17.0293Z" stroke="#282828" stroke-width="4"/>
<path d="M557.678 -36.0873L591.437 -15.5663L579.29 -8.55352M579.29 -8.55352L569.847 -15.0096L567.922 23.7322M579.29 -8.55352L580.16 2.85283L614.456 -16.9479" stroke="#282828" stroke-width="4"/>
<path d="M685.873 61.2299L685.993 7.81126L698.14 0.79848L744.105 27.6099L744.315 40.3495L697.515 67.3693L685.873 61.2299Z" stroke="#282828" stroke-width="4"/>
<path d="M687.12 8.11332L720.879 28.6344L708.733 35.6471M708.733 35.6471L699.289 29.191L697.364 67.9329M708.733 35.6471L709.602 47.0535L743.898 27.2527" stroke="#282828" stroke-width="4"/>
<path d="M233.346 441.431L233.466 388.012L245.613 380.999L291.578 407.81L291.788 420.55L244.988 447.57L233.346 441.431Z" stroke="#282828" stroke-width="4"/>
<path d="M234.593 388.314L268.352 408.835L256.206 415.848M256.206 415.848L246.762 409.392L244.837 448.133M256.206 415.848L257.075 427.254L291.371 407.453" stroke="#282828" stroke-width="4"/>
<path d="M362.788 485.631L362.909 432.212L375.055 425.2L421.02 452.011L421.23 464.751L374.431 491.77L362.788 485.631Z" stroke="#282828" stroke-width="4"/>
<path d="M364.036 432.515L397.795 453.036L385.648 460.048M385.648 460.048L376.205 453.592L374.28 492.334M385.648 460.048L386.518 471.455L420.814 451.654" stroke="#282828" stroke-width="4"/>
<path d="M375.374 359.431L375.495 306.012L387.641 298.999L433.606 325.81L433.816 338.55L387.017 365.57L375.374 359.431Z" stroke="#282828" stroke-width="4"/>
<path d="M376.622 306.314L410.381 326.835L398.234 333.848M398.234 333.848L388.791 327.392L386.865 366.133M398.234 333.848L399.104 345.254L433.4 325.453" stroke="#282828" stroke-width="4"/>
<path d="M504.817 403.631L504.937 350.212L517.083 343.2L563.048 370.011L563.259 382.751L516.459 409.771L504.817 403.631Z" stroke="#282828" stroke-width="4"/>
<path d="M506.064 350.515L539.823 371.036L527.677 378.048M527.677 378.048L518.233 371.592L516.308 410.334M527.677 378.048L528.546 389.455L562.842 369.654" stroke="#282828" stroke-width="4"/>
<path d="M517.402 277.431L517.522 224.012L529.669 216.999L575.634 243.81L575.844 256.55L529.044 283.57L517.402 277.431Z" stroke="#282828" stroke-width="4"/>
<path d="M518.649 224.314L552.409 244.835L540.262 251.848M540.262 251.848L530.819 245.392L528.893 284.133M540.262 251.848L541.132 263.254L575.427 243.453" stroke="#282828" stroke-width="4"/>
<path d="M646.845 321.631L646.965 268.212L659.111 261.2L705.076 288.011L705.286 300.751L658.487 327.771L646.845 321.631Z" stroke="#282828" stroke-width="4"/>
<path d="M648.092 268.515L681.851 289.036L669.704 296.048M669.704 296.048L660.261 289.592L658.336 328.334M669.704 296.048L670.574 307.455L704.87 287.654" stroke="#282828" stroke-width="4"/>
<path d="M659.43 195.431L659.551 142.012L671.697 134.999L717.662 161.81L717.872 174.55L671.073 201.57L659.43 195.431Z" stroke="#282828" stroke-width="4"/>
<path d="M660.678 142.314L694.437 162.835L682.29 169.848M682.29 169.848L672.847 163.392L670.922 202.133M682.29 169.848L683.16 181.254L717.456 161.453" stroke="#282828" stroke-width="4"/>
<path d="M788.873 239.631L788.993 186.212L801.14 179.2L847.105 206.011L847.315 218.751L800.515 245.771L788.873 239.631Z" stroke="#282828" stroke-width="4"/>
<path d="M790.12 186.515L823.879 207.036L811.733 214.048M811.733 214.048L802.289 207.592L800.364 246.334M811.733 214.048L812.602 225.455L846.898 205.654" stroke="#282828" stroke-width="4"/>
<path d="M801.459 113.431L801.579 60.0119L813.726 52.9991L859.69 79.8105L859.901 92.5501L813.101 119.57L801.459 113.431Z" stroke="#282828" stroke-width="4"/>
<path d="M802.706 60.3139L836.465 80.835L824.319 87.8477M824.319 87.8477L814.875 81.3916L812.95 120.133M824.319 87.8477L825.188 99.2541L859.484 79.4533" stroke="#282828" stroke-width="4"/>
<path d="M930.901 157.631L931.021 104.212L943.168 97.1997L989.133 124.011L989.343 136.751L942.543 163.771L930.901 157.631Z" stroke="#282828" stroke-width="4"/>
<path d="M932.148 104.515L965.908 125.036L953.761 132.048M953.761 132.048L944.318 125.592L942.392 164.334M953.761 132.048L954.631 143.455L988.926 123.654" stroke="#282828" stroke-width="4"/>
<path d="M943.487 31.4306L943.607 -21.9881L955.753 -29.0009L1001.72 -2.1895L1001.93 10.5501L955.129 37.5699L943.487 31.4306Z" stroke="#282828" stroke-width="4"/>
<path d="M944.734 -21.6861L978.493 -1.16504L966.347 5.84773M966.347 5.84773L956.903 -0.608394L954.978 38.1335M966.347 5.84773L967.216 17.2541L1001.51 -2.54669" stroke="#282828" stroke-width="4"/>
<path d="M1072.93 75.6312L1073.05 22.2125L1085.2 15.1997L1131.16 42.0111L1131.37 54.7507L1084.57 81.7705L1072.93 75.6312Z" stroke="#282828" stroke-width="4"/>
<path d="M1074.18 22.5146L1107.94 43.0356L1095.79 50.0484M1095.79 50.0484L1086.35 43.5923L1084.42 82.3341M1095.79 50.0484L1096.66 61.4547L1130.95 41.654" stroke="#282828" stroke-width="4"/>
<path d="M1214.96 -6.36882L1215.08 -59.7875L1227.22 -66.8003L1273.19 -39.9889L1273.4 -27.2493L1226.6 -0.229457L1214.96 -6.36882Z" stroke="#282828" stroke-width="4"/>
<path d="M1216.2 -59.4855L1249.96 -38.9644L1237.82 -31.9517M1237.82 -31.9517L1228.37 -38.4078L1226.45 0.334087M1237.82 -31.9517L1238.69 -20.5453L1272.98 -40.3461" stroke="#282828" stroke-width="4"/>
<path d="M336.346 619.832L336.466 566.413L348.613 559.4L394.578 586.212L394.788 598.951L347.988 625.971L336.346 619.832Z" stroke="#282828" stroke-width="4"/>
<path d="M337.593 566.715L371.352 587.236L359.206 594.249M359.206 594.249L349.762 587.793L347.837 626.535M359.206 594.249L360.075 605.655L394.371 585.855" stroke="#282828" stroke-width="4"/>
<path d="M465.788 664.032L465.909 610.614L478.055 603.601L524.02 630.412L524.23 643.152L477.431 670.172L465.788 664.032Z" stroke="#282828" stroke-width="4"/>
<path d="M467.036 610.916L500.795 631.437L488.648 638.45M488.648 638.45L479.205 631.993L477.28 670.735M488.648 638.45L489.518 649.856L523.814 630.055" stroke="#282828" stroke-width="4"/>
<path d="M478.374 537.832L478.495 484.413L490.641 477.4L536.606 504.212L536.816 516.951L490.017 543.971L478.374 537.832Z" stroke="#282828" stroke-width="4"/>
<path d="M479.622 484.715L513.381 505.236L501.234 512.249M501.234 512.249L491.791 505.793L489.865 544.535M501.234 512.249L502.104 523.655L536.4 503.855" stroke="#282828" stroke-width="4"/>
<path d="M607.817 582.032L607.937 528.614L620.083 521.601L666.048 548.412L666.259 561.152L619.459 588.172L607.817 582.032Z" stroke="#282828" stroke-width="4"/>
<path d="M609.064 528.916L642.823 549.437L630.677 556.45M630.677 556.45L621.233 549.993L619.308 588.735M630.677 556.45L631.546 567.856L665.842 548.055" stroke="#282828" stroke-width="4"/>
<path d="M620.402 455.832L620.522 402.413L632.669 395.4L678.634 422.212L678.844 434.951L632.044 461.971L620.402 455.832Z" stroke="#282828" stroke-width="4"/>
<path d="M621.649 402.715L655.409 423.236L643.262 430.249M643.262 430.249L633.819 423.793L631.893 462.535M643.262 430.249L644.132 441.655L678.427 421.855" stroke="#282828" stroke-width="4"/>
<path d="M749.845 500.032L749.965 446.614L762.111 439.601L808.076 466.412L808.286 479.152L761.487 506.172L749.845 500.032Z" stroke="#282828" stroke-width="4"/>
<path d="M751.092 446.916L784.851 467.437L772.704 474.45M772.704 474.45L763.261 467.993L761.336 506.735M772.704 474.45L773.574 485.856L807.87 466.055" stroke="#282828" stroke-width="4"/>
<path d="M762.43 373.832L762.551 320.413L774.697 313.4L820.662 340.212L820.872 352.951L774.073 379.971L762.43 373.832Z" stroke="#282828" stroke-width="4"/>
<path d="M763.678 320.715L797.437 341.236L785.29 348.249M785.29 348.249L775.847 341.793L773.922 380.535M785.29 348.249L786.16 359.655L820.456 339.855" stroke="#282828" stroke-width="4"/>
<path d="M891.873 418.032L891.993 364.614L904.14 357.601L950.105 384.412L950.315 397.152L903.515 424.172L891.873 418.032Z" stroke="#282828" stroke-width="4"/>
<path d="M893.12 364.916L926.879 385.437L914.733 392.45M914.733 392.45L905.289 385.993L903.364 424.735M914.733 392.45L915.602 403.856L949.898 384.055" stroke="#282828" stroke-width="4"/>
<path d="M904.459 291.832L904.579 238.413L916.726 231.4L962.69 258.212L962.901 270.951L916.101 297.971L904.459 291.832Z" stroke="#282828" stroke-width="4"/>
<path d="M905.706 238.715L939.465 259.236L927.319 266.249M927.319 266.249L917.875 259.793L915.95 298.535M927.319 266.249L928.188 277.655L962.484 257.855" stroke="#282828" stroke-width="4"/>
<path d="M1033.9 336.032L1034.02 282.614L1046.17 275.601L1092.13 302.412L1092.34 315.152L1045.54 342.172L1033.9 336.032Z" stroke="#282828" stroke-width="4"/>
<path d="M1035.15 282.916L1068.91 303.437L1056.76 310.45M1056.76 310.45L1047.32 303.993L1045.39 342.735M1056.76 310.45L1057.63 321.856L1091.93 302.055" stroke="#282828" stroke-width="4"/>
<path d="M1046.49 209.832L1046.61 156.413L1058.75 149.4L1104.72 176.212L1104.93 188.951L1058.13 215.971L1046.49 209.832Z" stroke="#282828" stroke-width="4"/>
<path d="M1047.73 156.715L1081.49 177.236L1069.35 184.249M1069.35 184.249L1059.9 177.793L1057.98 216.535M1069.35 184.249L1070.22 195.655L1104.51 175.855" stroke="#282828" stroke-width="4"/>
<path d="M1175.93 254.032L1176.05 200.614L1188.2 193.601L1234.16 220.412L1234.37 233.152L1187.57 260.172L1175.93 254.032Z" stroke="#282828" stroke-width="4"/>
<path d="M1177.18 200.916L1210.94 221.437L1198.79 228.45M1198.79 228.45L1189.35 221.993L1187.42 260.735M1198.79 228.45L1199.66 239.856L1233.95 220.055" stroke="#282828" stroke-width="4"/>
<path d="M1188.51 127.832L1188.64 74.4131L1200.78 67.4003L1246.75 94.2117L1246.96 106.951L1200.16 133.971L1188.51 127.832Z" stroke="#282828" stroke-width="4"/>
<path d="M1189.76 74.7151L1223.52 95.2362L1211.37 102.249M1211.37 102.249L1201.93 95.7928L1200.01 134.535M1211.37 102.249L1212.24 113.655L1246.54 93.8545" stroke="#282828" stroke-width="4"/>
<path d="M1317.96 172.032L1318.08 118.614L1330.22 111.601L1376.19 138.412L1376.4 151.152L1329.6 178.172L1317.96 172.032Z" stroke="#282828" stroke-width="4"/>
<path d="M1319.2 118.916L1352.96 139.437L1340.82 146.45M1340.82 146.45L1331.37 139.993L1329.45 178.735M1340.82 146.45L1341.69 157.856L1375.98 138.055" stroke="#282828" stroke-width="4"/>
<path d="M1330.54 45.8317L1330.66 -7.58693L1342.81 -14.5997L1388.77 12.2117L1388.99 24.9513L1342.19 51.9711L1330.54 45.8317Z" stroke="#282828" stroke-width="4"/>
<path d="M1331.79 -7.28491L1365.55 13.2361L1353.4 20.2489M1353.4 20.2489L1343.96 13.7928L1342.03 52.5346M1353.4 20.2489L1354.27 31.6553L1388.57 11.8545" stroke="#282828" stroke-width="4"/>
<path d="M1459.99 90.0324L1460.11 36.6137L1472.25 29.6009L1518.22 56.4123L1518.43 69.1519L1471.63 96.1717L1459.99 90.0324Z" stroke="#282828" stroke-width="4"/>
<path d="M1461.23 36.9157L1494.99 57.4368L1482.85 64.4496M1482.85 64.4496L1473.4 57.9934L1471.48 96.7353M1482.85 64.4496L1483.72 75.8559L1518.01 56.0551" stroke="#282828" stroke-width="4"/>
<path d="M448.273 793.11L448.393 739.691L460.54 732.679L506.504 759.49L506.715 772.23L459.915 799.249L448.273 793.11Z" stroke="#282828" stroke-width="4"/>
<path d="M449.52 739.993L483.279 760.514L471.133 767.527M471.133 767.527L461.689 761.071L459.764 799.813M471.133 767.527L472.002 778.934L506.298 759.133" stroke="#282828" stroke-width="4"/>
<path d="M577.715 837.311L577.835 783.892L589.982 776.879L635.947 803.691L636.157 816.43L589.357 843.45L577.715 837.311Z" stroke="#282828" stroke-width="4"/>
<path d="M578.962 784.194L612.722 804.715L600.575 811.728M600.575 811.728L591.132 805.272L589.206 844.014M600.575 811.728L601.445 823.134L635.74 803.333" stroke="#282828" stroke-width="4"/>
<path d="M590.301 711.11L590.421 657.691L602.568 650.679L648.533 677.49L648.743 690.23L601.943 717.249L590.301 711.11Z" stroke="#282828" stroke-width="4"/>
<path d="M591.548 657.993L625.307 678.514L613.161 685.527M613.161 685.527L603.718 679.071L601.792 717.813M613.161 685.527L614.03 696.934L648.326 677.133" stroke="#282828" stroke-width="4"/>
<path d="M719.743 755.311L719.864 701.892L732.01 694.879L777.975 721.691L778.185 734.43L731.386 761.45L719.743 755.311Z" stroke="#282828" stroke-width="4"/>
<path d="M720.991 702.194L754.75 722.715L742.603 729.728M742.603 729.728L733.16 723.272L731.235 762.014M742.603 729.728L743.473 741.134L777.769 721.333" stroke="#282828" stroke-width="4"/>
<path d="M732.329 629.11L732.449 575.691L744.596 568.679L790.561 595.49L790.771 608.23L743.971 635.249L732.329 629.11Z" stroke="#282828" stroke-width="4"/>
<path d="M733.576 575.993L767.335 596.514L755.189 603.527M755.189 603.527L745.745 597.071L743.82 635.813M755.189 603.527L756.058 614.934L790.354 595.133" stroke="#282828" stroke-width="4"/>
<path d="M861.771 673.311L861.892 619.892L874.038 612.879L920.003 639.691L920.213 652.43L873.413 679.45L861.771 673.311Z" stroke="#282828" stroke-width="4"/>
<path d="M863.019 620.194L896.778 640.715L884.631 647.728M884.631 647.728L875.188 641.272L873.262 680.014M884.631 647.728L885.501 659.134L919.797 639.333" stroke="#282828" stroke-width="4"/>
<path d="M874.357 547.11L874.478 493.691L886.624 486.679L932.589 513.49L932.799 526.23L885.999 553.249L874.357 547.11Z" stroke="#282828" stroke-width="4"/>
<path d="M875.604 493.993L909.364 514.514L897.217 521.527M897.217 521.527L887.774 515.071L885.848 553.813M897.217 521.527L898.087 532.934L932.383 513.133" stroke="#282828" stroke-width="4"/>
<path d="M1003.8 591.311L1003.92 537.892L1016.07 530.879L1062.03 557.691L1062.24 570.43L1015.44 597.45L1003.8 591.311Z" stroke="#282828" stroke-width="4"/>
<path d="M1005.05 538.194L1038.81 558.715L1026.66 565.728M1026.66 565.728L1017.22 559.272L1015.29 598.014M1026.66 565.728L1027.53 577.134L1061.82 557.333" stroke="#282828" stroke-width="4"/>
<path d="M1016.39 465.11L1016.51 411.691L1028.65 404.679L1074.62 431.49L1074.83 444.23L1028.03 471.249L1016.39 465.11Z" stroke="#282828" stroke-width="4"/>
<path d="M1017.63 411.993L1051.39 432.514L1039.25 439.527M1039.25 439.527L1029.8 433.071L1027.88 471.813M1039.25 439.527L1040.11 450.934L1074.41 431.133" stroke="#282828" stroke-width="4"/>
<path d="M1145.83 509.311L1145.95 455.892L1158.09 448.879L1204.06 475.691L1204.27 488.43L1157.47 515.45L1145.83 509.311Z" stroke="#282828" stroke-width="4"/>
<path d="M1147.08 456.194L1180.83 476.715L1168.69 483.728M1168.69 483.728L1159.24 477.272L1157.32 516.014M1168.69 483.728L1169.56 495.134L1203.85 475.333" stroke="#282828" stroke-width="4"/>
<path d="M1158.41 383.11L1158.53 329.691L1170.68 322.679L1216.65 349.49L1216.86 362.23L1170.06 389.249L1158.41 383.11Z" stroke="#282828" stroke-width="4"/>
<path d="M1159.66 329.993L1193.42 350.514L1181.27 357.527M1181.27 357.527L1171.83 351.071L1169.9 389.813M1181.27 357.527L1182.14 368.934L1216.44 349.133" stroke="#282828" stroke-width="4"/>
<path d="M1287.86 427.311L1287.98 373.892L1300.12 366.879L1346.09 393.691L1346.3 406.43L1299.5 433.45L1287.86 427.311Z" stroke="#282828" stroke-width="4"/>
<path d="M1289.1 374.194L1322.86 394.715L1310.72 401.728M1310.72 401.728L1301.27 395.272L1299.35 434.014M1310.72 401.728L1311.59 413.134L1345.88 393.333" stroke="#282828" stroke-width="4"/>
<path d="M1300.44 301.11L1300.56 247.691L1312.71 240.679L1358.67 267.49L1358.88 280.23L1312.08 307.249L1300.44 301.11Z" stroke="#282828" stroke-width="4"/>
<path d="M1301.69 247.993L1335.45 268.514L1323.3 275.527M1323.3 275.527L1313.86 269.071L1311.93 307.813M1323.3 275.527L1324.17 286.934L1358.47 267.133" stroke="#282828" stroke-width="4"/>
<path d="M1429.88 345.311L1430 291.892L1442.15 284.879L1488.12 311.691L1488.33 324.43L1441.53 351.45L1429.88 345.311Z" stroke="#282828" stroke-width="4"/>
<path d="M1431.13 292.194L1464.89 312.715L1452.74 319.728M1452.74 319.728L1443.3 313.272L1441.38 352.014M1452.74 319.728L1453.61 331.134L1487.91 311.333" stroke="#282828" stroke-width="4"/>
<path d="M1442.47 219.11L1442.59 165.691L1454.74 158.679L1500.7 185.49L1500.91 198.23L1454.11 225.249L1442.47 219.11Z" stroke="#282828" stroke-width="4"/>
<path d="M1443.72 165.993L1477.48 186.514L1465.33 193.527M1465.33 193.527L1455.89 187.071L1453.96 225.813M1465.33 193.527L1466.2 204.934L1500.5 185.133" stroke="#282828" stroke-width="4"/>
<path d="M551.273 971.511L551.393 918.093L563.54 911.08L609.504 937.891L609.715 950.631L562.915 977.651L551.273 971.511Z" stroke="#282828" stroke-width="4"/>
<path d="M552.52 918.395L586.279 938.916L574.133 945.928M574.133 945.928L564.689 939.472L562.764 978.214M574.133 945.928L575.002 957.335L609.298 937.534" stroke="#282828" stroke-width="4"/>
<path d="M680.715 1015.71L680.835 962.293L692.982 955.28L738.947 982.092L739.157 994.831L692.357 1021.85L680.715 1015.71Z" stroke="#282828" stroke-width="4"/>
<path d="M681.962 962.595L715.722 983.116L703.575 990.129M703.575 990.129L694.132 983.673L692.206 1022.41M703.575 990.129L704.445 1001.54L738.74 981.735" stroke="#282828" stroke-width="4"/>
<path d="M693.301 889.511L693.421 836.093L705.568 829.08L751.533 855.891L751.743 868.631L704.943 895.651L693.301 889.511Z" stroke="#282828" stroke-width="4"/>
<path d="M694.548 836.395L728.307 856.916L716.161 863.928M716.161 863.928L706.718 857.472L704.792 896.214M716.161 863.928L717.03 875.335L751.326 855.534" stroke="#282828" stroke-width="4"/>
<path d="M822.743 933.712L822.864 880.293L835.01 873.28L880.975 900.092L881.185 912.831L834.386 939.851L822.743 933.712Z" stroke="#282828" stroke-width="4"/>
<path d="M823.991 880.595L857.75 901.116L845.603 908.129M845.603 908.129L836.16 901.673L834.235 940.415M845.603 908.129L846.473 919.535L880.769 899.735" stroke="#282828" stroke-width="4"/>
<path d="M835.329 807.511L835.449 754.093L847.596 747.08L893.561 773.891L893.771 786.631L846.971 813.651L835.329 807.511Z" stroke="#282828" stroke-width="4"/>
<path d="M836.576 754.395L870.335 774.916L858.189 781.928M858.189 781.928L848.745 775.472L846.82 814.214M858.189 781.928L859.058 793.335L893.354 773.534" stroke="#282828" stroke-width="4"/>
<path d="M964.771 851.712L964.892 798.293L977.038 791.28L1023 818.092L1023.21 830.831L976.413 857.851L964.771 851.712Z" stroke="#282828" stroke-width="4"/>
<path d="M966.019 798.595L999.778 819.116L987.631 826.129M987.631 826.129L978.188 819.673L976.262 858.415M987.631 826.129L988.501 837.535L1022.8 817.735" stroke="#282828" stroke-width="4"/>
<path d="M977.357 725.511L977.478 672.093L989.624 665.08L1035.59 691.891L1035.8 704.631L988.999 731.651L977.357 725.511Z" stroke="#282828" stroke-width="4"/>
<path d="M978.604 672.395L1012.36 692.916L1000.22 699.928M1000.22 699.928L990.774 693.472L988.848 732.214M1000.22 699.928L1001.09 711.335L1035.38 691.534" stroke="#282828" stroke-width="4"/>
<path d="M1106.8 769.712L1106.92 716.293L1119.07 709.28L1165.03 736.092L1165.24 748.831L1118.44 775.851L1106.8 769.712Z" stroke="#282828" stroke-width="4"/>
<path d="M1108.05 716.595L1141.81 737.116L1129.66 744.129M1129.66 744.129L1120.22 737.673L1118.29 776.415M1129.66 744.129L1130.53 755.535L1164.82 735.735" stroke="#282828" stroke-width="4"/>
<path d="M1119.39 643.511L1119.51 590.093L1131.65 583.08L1177.62 609.891L1177.83 622.631L1131.03 649.651L1119.39 643.511Z" stroke="#282828" stroke-width="4"/>
<path d="M1120.63 590.395L1154.39 610.916L1142.25 617.928M1142.25 617.928L1132.8 611.472L1130.88 650.214M1142.25 617.928L1143.11 629.335L1177.41 609.534" stroke="#282828" stroke-width="4"/>
<path d="M1248.83 687.712L1248.95 634.293L1261.09 627.28L1307.06 654.092L1307.27 666.831L1260.47 693.851L1248.83 687.712Z" stroke="#282828" stroke-width="4"/>
<path d="M1250.08 634.595L1283.83 655.116L1271.69 662.129M1271.69 662.129L1262.24 655.673L1260.32 694.415M1271.69 662.129L1272.56 673.535L1306.85 653.735" stroke="#282828" stroke-width="4"/>
<path d="M1261.41 561.511L1261.53 508.093L1273.68 501.08L1319.65 527.891L1319.86 540.631L1273.06 567.651L1261.41 561.511Z" stroke="#282828" stroke-width="4"/>
<path d="M1262.66 508.395L1296.42 528.916L1284.27 535.928M1284.27 535.928L1274.83 529.472L1272.9 568.214M1284.27 535.928L1285.14 547.335L1319.44 527.534" stroke="#282828" stroke-width="4"/>
<path d="M1390.86 605.712L1390.98 552.293L1403.12 545.28L1449.09 572.092L1449.3 584.831L1402.5 611.851L1390.86 605.712Z" stroke="#282828" stroke-width="4"/>
<path d="M1392.1 552.595L1425.86 573.116L1413.72 580.129M1413.72 580.129L1404.27 573.673L1402.35 612.415M1413.72 580.129L1414.59 591.535L1448.88 571.735" stroke="#282828" stroke-width="4"/>
<path d="M1403.44 479.511L1403.56 426.093L1415.71 419.08L1461.67 445.891L1461.88 458.631L1415.08 485.651L1403.44 479.511Z" stroke="#282828" stroke-width="4"/>
<path d="M1404.69 426.395L1438.45 446.916L1426.3 453.928M1426.3 453.928L1416.86 447.472L1414.93 486.214M1426.3 453.928L1427.17 465.335L1461.47 445.534" stroke="#282828" stroke-width="4"/>
<path d="M938.329 985.912L938.449 932.494L950.596 925.481L996.561 952.292L996.771 965.032L949.971 992.052L938.329 985.912Z" stroke="#282828" stroke-width="4"/>
<path d="M939.576 932.796L973.335 953.317L961.189 960.33M961.189 960.33L951.745 953.874L949.82 992.615M961.189 960.33L962.058 971.736L996.354 951.935" stroke="#282828" stroke-width="4"/>
<path d="M1067.77 1030.11L1067.89 976.694L1080.04 969.682L1126 996.493L1126.21 1009.23L1079.41 1036.25L1067.77 1030.11Z" stroke="#282828" stroke-width="4"/>
<path d="M1069.02 976.996L1102.78 997.518L1090.63 1004.53M1090.63 1004.53L1081.19 998.074L1079.26 1036.82M1090.63 1004.53L1091.5 1015.94L1125.8 996.136" stroke="#282828" stroke-width="4"/>
<path d="M1080.36 903.912L1080.48 850.494L1092.62 843.481L1138.59 870.292L1138.8 883.032L1092 910.052L1080.36 903.912Z" stroke="#282828" stroke-width="4"/>
<path d="M1081.6 850.796L1115.36 871.317L1103.22 878.33M1103.22 878.33L1093.77 871.874L1091.85 910.615M1103.22 878.33L1104.09 889.736L1138.38 869.935" stroke="#282828" stroke-width="4"/>
<path d="M1209.8 948.113L1209.92 894.694L1222.07 887.682L1268.03 914.493L1268.24 927.233L1221.44 954.252L1209.8 948.113Z" stroke="#282828" stroke-width="4"/>
<path d="M1211.05 894.996L1244.81 915.518L1232.66 922.53M1232.66 922.53L1223.22 916.074L1221.29 954.816M1232.66 922.53L1233.53 933.937L1267.82 914.136" stroke="#282828" stroke-width="4"/>
<path d="M1222.39 821.912L1222.51 768.494L1234.65 761.481L1280.62 788.292L1280.83 801.032L1234.03 828.052L1222.39 821.912Z" stroke="#282828" stroke-width="4"/>
<path d="M1223.63 768.796L1257.39 789.317L1245.25 796.33M1245.25 796.33L1235.8 789.874L1233.88 828.615M1245.25 796.33L1246.11 807.736L1280.41 787.935" stroke="#282828" stroke-width="4"/>
<path d="M1351.83 866.113L1351.95 812.694L1364.09 805.682L1410.06 832.493L1410.27 845.233L1363.47 872.252L1351.83 866.113Z" stroke="#282828" stroke-width="4"/>
<path d="M1353.08 812.996L1386.83 833.518L1374.69 840.53M1374.69 840.53L1365.24 834.074L1363.32 872.816M1374.69 840.53L1375.56 851.937L1409.85 832.136" stroke="#282828" stroke-width="4"/>
<path d="M1364.41 739.912L1364.53 686.494L1376.68 679.481L1422.65 706.292L1422.86 719.032L1376.06 746.052L1364.41 739.912Z" stroke="#282828" stroke-width="4"/>
<path d="M1365.66 686.796L1399.42 707.317L1387.27 714.33M1387.27 714.33L1377.83 707.874L1375.9 746.615M1387.27 714.33L1388.14 725.736L1422.44 705.935" stroke="#282828" stroke-width="4"/>
<path d="M1493.86 784.113L1493.98 730.694L1506.12 723.682L1552.09 750.493L1552.3 763.233L1505.5 790.252L1493.86 784.113Z" stroke="#282828" stroke-width="4"/>
<path d="M1495.1 730.996L1528.86 751.518L1516.72 758.53M1516.72 758.53L1507.27 752.074L1505.35 790.816M1516.72 758.53L1517.59 769.937L1551.88 750.136" stroke="#282828" stroke-width="4"/>
<path d="M1325.39 1000.31L1325.51 946.895L1337.65 939.882L1383.62 966.694L1383.83 979.433L1337.03 1006.45L1325.39 1000.31Z" stroke="#282828" stroke-width="4"/>
<path d="M1326.63 947.197L1360.39 967.718L1348.25 974.731M1348.25 974.731L1338.8 968.275L1336.88 1007.02M1348.25 974.731L1349.11 986.137L1383.41 966.336" stroke="#282828" stroke-width="4"/>
<path d="M1454.83 1044.51L1454.95 991.096L1467.09 984.083L1513.06 1010.89L1513.27 1023.63L1466.47 1050.65L1454.83 1044.51Z" stroke="#282828" stroke-width="4"/>
<path d="M1456.08 991.398L1489.83 1011.92L1477.69 1018.93M1477.69 1018.93L1468.24 1012.48L1466.32 1051.22M1477.69 1018.93L1478.56 1030.34L1512.85 1010.54" stroke="#282828" stroke-width="4"/>
<path d="M1467.41 918.314L1467.53 864.895L1479.68 857.882L1525.65 884.694L1525.86 897.433L1479.06 924.453L1467.41 918.314Z" stroke="#282828" stroke-width="4"/>
<path d="M1468.66 865.197L1502.42 885.718L1490.27 892.731M1490.27 892.731L1480.83 886.275L1478.9 925.017M1490.27 892.731L1491.14 904.137L1525.44 884.336" stroke="#282828" stroke-width="4"/>
</mask>
<g mask="url(#mask0_129_1722)">
<rect x="489.865" y="6.10352e-05" width="986.484" height="978.566" fill="url(#paint0_linear_129_1722)"/>
</g>
<defs>
<linearGradient id="paint0_linear_129_1722" x1="587.019" y1="422.702" x2="1490.79" y2="643.255" gradientUnits="userSpaceOnUse">
<stop offset="0.078125" stop-color="#2D2D2D" stop-opacity="0"/>
<stop offset="1" stop-color="#2D2D2D"/>
</linearGradient>
</defs>
</svg>
