<svg width="23" height="23" viewBox="0 0 23 23" fill="none" xmlns="http://www.w3.org/2000/svg">
<path d="M5.86291 11.5629C5.86291 14.5539 8.29608 16.9871 11.2872 16.9871C14.2782 16.9871 16.7114 14.5539 16.7114 11.5629C16.7114 8.57177 14.2782 6.13861 11.2872 6.13861C8.29608 6.13861 5.86291 8.57177 5.86291 11.5629ZM10.2017 19.1462H12.3683V22.3962H10.2017V19.1462ZM10.2017 0.729523H12.3683V3.97952H10.2017V0.729523ZM0.45166 10.4795H3.70166V12.6462H0.45166V10.4795ZM18.8683 10.4795H22.1183V12.6462H18.8683V10.4795ZM4.39174 19.989L2.85991 18.4572L5.15766 16.1594L6.68949 17.6913L4.39174 19.989ZM15.8805 5.43552L18.1793 3.13669L19.7112 4.66852L17.4123 6.96736L15.8805 5.43552ZM5.15766 6.96844L2.85991 4.66961L4.39283 3.13777L6.68949 5.43661L5.15766 6.96844ZM19.7112 18.4572L18.1793 19.989L15.8805 17.6902L17.4123 16.1584L19.7112 18.4572Z" fill="#D7D7D7"/>
</svg>
