<svg width="41" height="41" viewBox="0 0 41 41" fill="none" xmlns="http://www.w3.org/2000/svg">
<rect x="0.3125" y="0.615417" width="40" height="40" rx="6" fill="#878787"/>
<path d="M20.3087 13.4321C16.3336 13.4321 13.1255 16.6402 13.1255 20.6154C13.1255 24.5906 16.3336 27.7988 20.3087 27.7988C24.2838 27.7988 27.492 24.5906 27.492 20.6154C27.492 16.6402 24.2838 13.4321 20.3087 13.4321ZM20.3087 25.2841C17.738 25.2841 15.6402 23.1862 15.6402 20.6154C15.6402 18.0447 17.738 15.9468 20.3087 15.9468C22.8794 15.9468 24.9773 18.0447 24.9773 20.6154C24.9773 23.1862 22.8794 25.2841 20.3087 25.2841ZM27.7861 11.4637C26.858 11.4637 26.1085 12.2132 26.1085 13.1414C26.1085 14.0695 26.858 14.819 27.7861 14.819C28.7143 14.819 29.4638 14.073 29.4638 13.1414C29.464 12.921 29.4208 12.7027 29.3366 12.499C29.2524 12.2954 29.1288 12.1103 28.973 11.9545C28.8172 11.7986 28.6321 11.6751 28.4285 11.5909C28.2248 11.5067 28.0065 11.4635 27.7861 11.4637ZM34.3109 20.6154C34.3109 18.6821 34.3284 16.7663 34.2199 14.8365C34.1113 12.595 33.6 10.6057 31.9609 8.96655C30.3183 7.32394 28.3325 6.81609 26.091 6.70752C24.1578 6.59895 22.242 6.61646 20.3122 6.61646C18.379 6.61646 16.4632 6.59895 14.5334 6.70752C12.292 6.81609 10.3027 7.32744 8.66359 8.96655C7.02101 10.6092 6.51317 12.595 6.4046 14.8365C6.29603 16.7698 6.31354 18.6856 6.31354 20.6154C6.31354 22.5452 6.29603 24.4645 6.4046 26.3943C6.51317 28.6358 7.02451 30.6252 8.66359 32.2643C10.3062 33.9069 12.292 34.4147 14.5334 34.5233C16.4667 34.6319 18.3825 34.6144 20.3122 34.6144C22.2455 34.6144 24.1613 34.6319 26.091 34.5233C28.3325 34.4147 30.3218 33.9034 31.9609 32.2643C33.6035 30.6217 34.1113 28.6358 34.2199 26.3943C34.332 24.4645 34.3109 22.5487 34.3109 20.6154ZM31.2289 28.874C30.9732 29.5114 30.665 29.9877 30.1712 30.4781C29.6774 30.9719 29.2046 31.2801 28.5672 31.5358C26.725 32.2678 22.3506 32.1032 20.3087 32.1032C18.2669 32.1032 13.889 32.2678 12.0468 31.5393C11.4094 31.2836 10.9331 30.9754 10.4428 30.4816C9.94893 29.9877 9.64073 29.5149 9.38506 28.8775C8.65658 27.0318 8.82119 22.6573 8.82119 20.6154C8.82119 18.5735 8.65658 14.1956 9.38506 12.3533C9.64073 11.7159 9.94893 11.2396 10.4428 10.7493C10.9366 10.2589 11.4094 9.94721 12.0468 9.69154C13.889 8.96304 18.2669 9.12766 20.3087 9.12766C22.3506 9.12766 26.7285 8.96304 28.5707 9.69154C29.2081 9.94721 29.6844 10.2554 30.1747 10.7493C30.6685 11.2431 30.9767 11.7159 31.2324 12.3533C31.9609 14.1956 31.7963 18.5735 31.7963 20.6154C31.7963 22.6573 31.9609 27.0318 31.2289 28.874Z" fill="#262626"/>
</svg>
