<svg width="41" height="41" viewBox="0 0 41 41" fill="none" xmlns="http://www.w3.org/2000/svg">
<rect x="0.3125" y="0.615417" width="40" height="40" rx="6" fill="#878787"/>
<path d="M10.9564 14.2114C12.5676 14.2114 13.8737 12.9053 13.8737 11.2941C13.8737 9.68289 12.5676 8.37675 10.9564 8.37675C9.3452 8.37675 8.03906 9.68289 8.03906 11.2941C8.03906 12.9053 9.3452 14.2114 10.9564 14.2114Z" fill="#262626"/>
<path d="M16.6283 16.4221V32.6074H21.6536V24.6034C21.6536 22.4914 22.051 20.4461 24.6696 20.4461C27.2523 20.4461 27.2843 22.8607 27.2843 24.7367V32.6087H32.3123V23.7327C32.3123 19.3727 31.3736 16.0221 26.2776 16.0221C23.831 16.0221 22.191 17.3647 21.5203 18.6354H21.4523V16.4221H16.6283ZM8.43896 16.4221H13.4723V32.6074H8.43896V16.4221Z" fill="#262626"/>
</svg>
