<?xml version="1.0" encoding="utf-8"?>
<svg viewBox="233.415 202.842 40 40" width="40px" height="40px" xmlns="http://www.w3.org/2000/svg">
    <rect x="233.415" y="202.842" width="40" height="40" rx="6" fill="#878787"
        transform="matrix(0.9999999999999999, 0, 0, 0.9999999999999999, 0, 0)" />
    <path id="Vector"
        d="M 26.68 11.73 C 25.655 10.559 25.09 9.056 25.09 7.5 L 20.455 7.5 L 20.455 26.1 C 20.42 27.107 19.995 28.061 19.27 28.76 C 18.545 29.46 17.577 29.851 16.57 29.85 C 14.44 29.85 12.67 28.11 12.67 25.95 C 12.67 23.37 15.16 21.435 17.725 22.23 L 17.725 17.49 C 12.55 16.8 8.02 20.82 8.02 25.95 C 8.02 30.945 12.16 34.5 16.555 34.5 C 21.265 34.5 25.09 30.675 25.09 25.95 L 25.09 16.515 C 26.969 17.865 29.226 18.589 31.54 18.585 L 31.54 13.95 C 31.54 13.95 28.72 14.085 26.68 11.73 Z"
        fill=" #262626"
        transform="matrix(0.9999999999999999, 0, 0, 0.9999999999999999, 233.10250854492188, 202.22682189941406)" />
</svg>