<svg width="41" height="41" viewBox="0 0 41 41" fill="none" xmlns="http://www.w3.org/2000/svg">
<rect x="0.3125" y="0.615417" width="40" height="40" rx="6" fill="#878787"/>
<path d="M32.3125 13.8333C31.4667 14.2081 30.5581 14.4613 29.6029 14.5758C30.5885 13.986 31.3258 13.0578 31.6774 11.9644C30.7514 12.5144 29.7379 12.9016 28.6811 13.109C27.9704 12.3502 27.029 11.8472 26.0032 11.6782C24.9773 11.5092 23.9244 11.6836 23.0078 12.1743C22.0912 12.6651 21.3623 13.4447 20.9342 14.3921C20.5061 15.3396 20.4028 16.4019 20.6403 17.4141C18.764 17.3198 16.9285 16.8322 15.2529 15.9827C13.5772 15.1332 12.099 13.9408 10.914 12.483C10.5088 13.182 10.2758 13.9923 10.2758 14.8554C10.2754 15.6323 10.4667 16.3973 10.8328 17.0826C11.1989 17.7678 11.7285 18.3521 12.3746 18.7836C11.6253 18.7597 10.8926 18.5573 10.2373 18.193V18.2538C10.2372 19.3435 10.6142 20.3996 11.3041 21.243C11.9941 22.0864 12.9546 22.6651 14.0227 22.8809C13.3276 23.0691 12.5988 23.0968 11.8915 22.962C12.1928 23.8996 12.7798 24.7195 13.5703 25.3069C14.3608 25.8943 15.3151 26.2198 16.2998 26.2379C14.6283 27.55 12.5639 28.2618 10.4389 28.2587C10.0625 28.2588 9.68636 28.2368 9.3125 28.1928C11.4695 29.5797 13.9805 30.3158 16.5449 30.3129C25.2259 30.3129 29.9716 23.123 29.9716 16.8873C29.9716 16.6847 29.9665 16.4801 29.9574 16.2775C30.8805 15.61 31.6773 14.7833 32.3105 13.8363L32.3125 13.8333Z" fill="#262626"/>
</svg>
